# xmcd
#
# Track frame offsets:
#	150
#	17244
#	30352
#
# Disc length: 630 seconds
#
# Revision: 0
# Processed by: cddbd v1.5.2PL0 Copyright (c) Steve Scherf et al.
# Submitted via: audiograbber 1.83.01
#
DISCID=17027403
DTITLE=Klopotek, Anton - Die "echte" von Dönninghaus (Maxi)
DYEAR=2003
DGENRE=Schlager
TTITLE0=Gimmi ma ne Bratwurst
TTITLE1=Gimmi ma ne Bratwurst (Karaoke Version)
TTITLE2=Du bist zu schön
EXTD=
EXTT0=
EXTT1=
EXTT2=
PLAYORDER=
